<?xml version="1.0" encoding="UTF-8" standalone="no" ?>
<!DOCTYPE svg PUBLIC "-//W3C//DTD SVG 1.1//EN" "http://www.w3.org/Graphics/SVG/1.1/DTD/svg11.dtd">
<svg xmlns="http://www.w3.org/2000/svg" xmlns:xlink="http://www.w3.org/1999/xlink" version="1.1" width="1280" height="1024" viewBox="0 0 1280 1024" xml:space="preserve">
<desc>Created with Fabric.js 5.3.0</desc>
<defs>
</defs>
<g transform="matrix(1 0 0 1 640 512)" id="background-logo"  >
<rect style="stroke: none; stroke-width: 0; stroke-dasharray: none; stroke-linecap: butt; stroke-dashoffset: 0; stroke-linejoin: miter; stroke-miterlimit: 4; fill: rgb(255,255,255); fill-opacity: 0; fill-rule: nonzero; opacity: 1;"  paint-order="stroke"  x="-640" y="-512" rx="0" ry="0" width="1280" height="1024" />
</g>
<g transform="matrix(2.997217291563045 0 0 2.997217291563045 641.396410372749 513.4487103867095)" id="shape-fb119df0-4c9f-466d-920c-a5d49a1ea3f4"  >
<g style=""  paint-order="stroke"   >
		<g transform="matrix(1 0 0 1 0 0)" id="path-01_00000104680057934179713680000016777930915013858960_"  >
<path style="stroke: none; stroke-width: 1; stroke-dasharray: none; stroke-linecap: butt; stroke-dashoffset: 0; stroke-linejoin: miter; stroke-miterlimit: 4; fill: rgb(6,21,44); fill-rule: nonzero; opacity: 1;"  paint-order="stroke"  transform=" translate(-125, -125)" d="M 249.30641 111.79729 C 246.49821 136.02236 235.2269 157.66407 218.53113 173.69958 L 218.53113 150.7185 C 222.5461 148.31845 224.99438999999998 145.12765000000002 224.99438999999998 141.62527 C 224.99438999999998 135.69673 209.33845999999997 123.80107 202.90579999999997 119.16323 C 202.93178999999998 119.015 202.95155999999997 118.86446 202.95155999999997 118.70877 C 202.95155999999997 117.56477 202.21499999999997 116.6019 201.19372999999996 116.24282 L 201.19372999999996 107.4579 C 204.19198999999995 107.05968 206.54763999999997 104.63418999999999 206.82969999999995 101.60063 C 205.91221999999993 102.64979 204.51624999999996 103.32047 202.95155999999994 103.32047 C 200.18826999999993 103.32047 197.94812999999994 101.23092 197.94812999999994 98.65347 C 197.94812999999994 96.82124999999999 199.08292999999995 95.24011 200.73016999999993 94.47635 C 200.59634999999994 94.46822999999999 200.46351999999993 94.45606 200.32762999999994 94.45606 C 196.71959999999993 94.45606 193.79474999999994 97.38096999999999 193.79474999999994 100.98894 C 193.79474999999994 104.30264 196.26404999999994 107.03326 199.46156999999994 107.4579 L 199.46156999999994 116.24282 C 198.44035999999994 116.6019 197.70373999999993 117.56477 197.70373999999993 118.70877 C 197.70373999999993 118.8001 197.72149999999993 118.8865 197.73059999999992 118.97531000000001 C 192.88180999999992 122.45894000000001 182.14807999999994 130.52363 177.54680999999994 136.77911 L 177.54680999999994 126.03183 C 184.78731999999994 121.70362 189.20262999999994 115.94942 189.20262999999994 109.6334 C 189.20262999999994 98.29153 157.40921999999995 74.82353 147.42810999999995 67.73564999999999 C 147.84019999999995 67.14796999999999 148.08623999999995 66.43552 148.08623999999995 65.66332 C 148.08623999999995 64.08525 147.07007999999993 62.75705 145.66129999999995 62.261469999999996 L 145.66129999999995 50.1428 C 149.79741999999996 49.5935 153.04691999999994 46.247460000000004 153.43598999999995 42.06288 C 152.17032999999995 43.51015 150.24470999999994 44.43531 148.08623999999995 44.43531 C 144.27426999999994 44.43531 141.18402999999995 41.55283 141.18402999999995 37.99738 C 141.18402999999995 35.4697 142.74943999999994 33.288489999999996 145.02185999999995 32.23506 C 144.83722999999995 32.223659999999995 144.65407999999994 32.20699 144.46658999999994 32.20699 C 139.48935999999995 32.20699 135.45448999999994 36.2418 135.45448999999994 41.219089999999994 C 135.45448999999994 45.790259999999996 138.86082999999994 49.557109999999994 143.27182999999994 50.14281 L 143.27182999999994 62.261489999999995 C 141.86308999999994 62.75706999999999 140.84688999999995 64.08527 140.84688999999995 65.66333999999999 C 140.84688999999995 66.43553999999999 141.09296999999995 67.148 141.50505999999996 67.73566999999998 C 131.52394999999996 74.82354999999998 99.73048999999996 98.29155999999999 99.73048999999996 109.63341999999999 C 99.73048999999996 115.94943999999998 104.14580999999995 121.70364 111.38631999999996 126.03184999999999 L 111.38631999999996 136.41754 C 106.56427999999995 130.10832 95.86337999999995 122.11787 91.22877999999996 118.79946000000001 C 91.22986999999996 118.76864 91.23793999999995 118.73981 91.23793999999995 118.70878 C 91.23793999999995 117.56478 90.50130999999995 116.60201 89.48005999999995 116.24283 L 89.48005999999995 107.45791 C 92.47830999999995 107.05969 94.83395999999995 104.63419999999999 95.11601999999995 101.60064 C 94.19853999999995 102.6498 92.80257999999995 103.32048 91.23794999999996 103.32048 C 88.47459999999995 103.32048 86.23450999999996 101.23093 86.23450999999996 98.65348 C 86.23450999999996 96.82126 87.36930999999996 95.24012 89.01654999999995 94.47636 C 88.88273999999996 94.46824 88.74989999999995 94.45607 88.61400999999995 94.45607 C 85.00597999999995 94.45607 82.08106999999995 97.38098 82.08106999999995 100.98895 C 82.08106999999995 104.30265 84.55035999999996 107.03327 87.74788999999996 107.45791 L 87.74788999999996 116.24283 C 86.72662999999996 116.60191 85.99005999999996 117.56478 85.99005999999996 118.70878 C 85.99005999999996 118.92280000000001 86.02278999999996 119.12794000000001 86.07114999999996 119.32705 C 79.50153999999996 124.07869 64.20993999999996 135.76725 64.20993999999996 141.62528 C 64.20993999999996 145.12766 66.65823999999996 148.31835 70.67313999999996 150.7184 L 70.67313999999996 167.28162 C 54.90350999999996 149.27913 45.341889999999964 125.70182 45.341889999999964 99.8887 C 45.341889999999964 51.03528 79.57904999999997 10.184610000000006 125.36671999999996 0.004829999999998336 C 125.24417 0.00439 125.12258 0 125 0 C 55.96443 0 0 55.96454 0 125.00011 C 0 194.03568 55.96443 250 125 250 C 162.11343 250 195.44276000000002 233.81987 218.33629000000002 208.13557 L 218.53113000000002 208.13557 L 218.53113000000002 207.91584 C 238.10631 185.85094 250 156.81676 250 125.00011 C 250 120.54033 249.76196 116.13647 249.30641 111.79729 z M 94.48523 174.21797 L 83.54766 174.21797 L 83.54766 162.38074 C 83.54766 158.93602 85.44539999999999 155.56334 89.01642 152.66158000000001 L 89.01647 152.66158000000001 C 92.58749999999999 155.56334 94.48523 158.93602 94.48523 162.38074 L 94.48523 174.21797 z M 111.38631 195.59018 C 110.03048 195.07573 108.68737 194.53586 107.35977 193.96628 L 107.35977 150.7184 C 108.97458 149.75311 110.33583 148.65987 111.38631 147.46994 L 111.38631 195.59018 z M 154.86844 174.21797 L 134.06473 174.21797 L 134.06473 150.69241 C 134.06473 143.84638999999999 137.67428999999998 137.14334 144.46652 131.37631 L 144.46658 131.37631 C 151.25882 137.14334 154.86844 143.84638999999999 154.86844 150.69241 L 154.86844 174.21797 z M 181.84453 196.36513 C 180.42597999999998 196.86772 178.99335 197.34006 177.5468 197.78104 L 177.5468 147.14342 C 178.63048999999998 148.45967 180.08384999999998 149.66593999999998 181.84453 150.71850999999998 L 181.84453 196.36513 z M 205.65659 174.21797 L 194.71903 174.21797 L 194.71903 162.38074 C 194.71903 158.93602 196.61675 155.56334 200.18783 152.66158000000001 C 203.75886 155.56334 205.6566 158.93602 205.6566 162.38074 L 205.6566 174.21797 z" stroke-linecap="round" />
</g>
</g>
</g>
</svg>