<?xml version="1.0" encoding="UTF-8" standalone="no" ?>
<!DOCTYPE svg PUBLIC "-//W3C//DTD SVG 1.1//EN" "http://www.w3.org/Graphics/SVG/1.1/DTD/svg11.dtd">
<svg xmlns="http://www.w3.org/2000/svg" xmlns:xlink="http://www.w3.org/1999/xlink" version="1.1" width="1280" height="1024" viewBox="0 0 1280 1024" xml:space="preserve">
<desc>Created with Fabric.js 5.3.0</desc>
<defs>
</defs>
<g transform="matrix(1 0 0 1 640 512)" id="background-logo"  >
<rect style="stroke: none; stroke-width: 0; stroke-dasharray: none; stroke-linecap: butt; stroke-dashoffset: 0; stroke-linejoin: miter; stroke-miterlimit: 4; fill: rgb(255,254,252); fill-rule: nonzero; opacity: 1;"  paint-order="stroke"  x="-640" y="-512" rx="0" ry="0" width="1280" height="1024" />
</g>
<g transform="matrix(1.9211538461538462 0 0 1.9211538461538462 640.9605769230769 357.73761612618546)" id="logo-logo"  >
<g style=""  paint-order="stroke"   >
		<g transform="matrix(0.25782664651991244 0 0 0.5352063044710589 0 44.86011405331104)"  >
<g style=""  paint-order="stroke"   >
		<g transform="matrix(0.7071067811865476 -0.7071067811865475 0.7071067811865475 0.7071067811865476 0 0)"  >
<rect style="stroke: none; stroke-width: 1; stroke-dasharray: none; stroke-linecap: butt; stroke-dashoffset: 0; stroke-linejoin: miter; stroke-miterlimit: 4; fill: rgb(10,34,71); fill-rule: nonzero; opacity: 1;"  paint-order="stroke"  x="-70.71" y="-70.71" rx="0" ry="0" width="141.42" height="141.42" />
</g>
</g>
</g>
		<g transform="matrix(0.15732091541861362 0 0 -0.15732091541861362 -1.7053026e-13 -25.582740660797867)"  >
<path style="stroke: none; stroke-width: 1; stroke-dasharray: none; stroke-linecap: butt; stroke-dashoffset: 0; stroke-linejoin: miter; stroke-miterlimit: 4; fill: rgb(5,19,41); fill-rule: evenodd; opacity: 1;"  paint-order="stroke"  transform=" translate(-2976.3749999999995, -4839.785)" d="M 2635.19 4585.82 L 2686.54 4585.82 L 2627.65 4551.82 L 2627.65 4203.049999999999 L 2489.7000000000003 4203.049999999999 L 2413.4300000000003 4203.049999999999 C 2388.3100000000004 4241.909999999999 2367.1000000000004 4283.539999999999 2350.36 4327.379999999999 C 2351.84 4326.909999999999 2353.4 4326.659999999999 2355.02 4326.659999999999 L 2529.09 4326.659999999999 C 2537.6600000000003 4326.659999999999 2544.67 4333.679999999999 2544.67 4342.249999999999 L 2544.67 4413.259999999999 C 2544.67 4421.839999999999 2537.66 4428.849999999999 2529.09 4428.849999999999 L 2355.02 4428.849999999999 C 2346.44 4428.849999999999 2339.43 4421.839999999999 2339.43 4413.259999999999 L 2339.43 4358.32 C 2327.74 4394.17 2318.99 4431.34 2313.47 4469.5599999999995 L 2489.7 4469.5599999999995 L 2489.7 4585.82 L 2489.7 5244.86 L 2481.04 5244.86 C 2464.61 5244.86 2451.16 5258.299999999999 2451.16 5274.73 L 2451.16 5274.73 C 2451.16 5290.58 2463.66 5303.639999999999 2479.2799999999997 5304.5599999999995 C 2449.08 5331.87 2466.41 5379.7 2500.9599999999996 5391.209999999999 C 2541.2299999999996 5404.629999999999 2562.4499999999994 5476.5199999999995 2562.4499999999994 5476.5199999999995 C 2562.4499999999994 5476.5199999999995 2583.6599999999994 5404.629999999999 2623.9299999999994 5391.209999999999 C 2658.4799999999996 5379.699999999999 2675.8099999999995 5331.869999999999 2645.609999999999 5304.5599999999995 C 2661.229999999999 5303.639999999999 2673.729999999999 5290.58 2673.729999999999 5274.73 L 2673.729999999999 5274.73 C 2673.729999999999 5258.299999999999 2660.2799999999993 5244.86 2643.849999999999 5244.86 L 2635.189999999999 5244.86 z M 2783.89 4642.03 C 2779.22 4646.73 2776.33 4653.2 2776.33 4660.3 L 2776.33 4660.3 C 2776.33 4674.59 2788.02 4686.28 2802.31 4686.28 L 2835 4686.28 C 2765.16 4730.45 2771.46 4881.84 2860.88 4911.45 C 2957.36 4946.09 2976.38 5082.92 2976.38 5082.92 C 2976.38 5082.92 2995.4 4946.09 3091.88 4911.45 C 3181.29 4881.84 3187.59 4730.45 3117.76 4686.28 L 3150.4500000000003 4686.28 C 3164.7300000000005 4686.28 3176.4300000000003 4674.59 3176.4300000000003 4660.3 L 3176.4300000000003 4660.3 C 3176.4300000000003 4653.2 3173.5400000000004 4646.7300000000005 3168.8700000000003 4642.03 L 2976.38 4753.16 z M 3266.22 4585.82 L 3317.5699999999997 4585.82 L 3317.5699999999997 5244.86 L 3308.91 5244.86 C 3292.47 5244.86 3279.0299999999997 5258.299999999999 3279.0299999999997 5274.73 L 3279.0299999999997 5274.73 C 3279.0299999999997 5290.58 3291.5199999999995 5303.639999999999 3307.1499999999996 5304.5599999999995 C 3276.95 5331.87 3294.2799999999997 5379.7 3328.8199999999997 5391.209999999999 C 3369.0899999999997 5404.629999999999 3390.3099999999995 5476.5199999999995 3390.3099999999995 5476.5199999999995 C 3390.3099999999995 5476.5199999999995 3411.5299999999993 5404.629999999999 3451.7999999999993 5391.209999999999 C 3486.3399999999992 5379.699999999999 3503.6799999999994 5331.869999999999 3473.479999999999 5304.5599999999995 C 3489.099999999999 5303.639999999999 3501.5899999999992 5290.58 3501.5899999999992 5274.73 L 3501.5899999999992 5274.73 C 3501.5899999999992 5258.299999999999 3488.149999999999 5244.86 3471.709999999999 5244.86 L 3463.0499999999993 5244.86 L 3463.0499999999993 4585.82 L 3463.0499999999993 4469.5599999999995 L 3639.2799999999993 4469.5599999999995 C 3633.7599999999993 4431.33 3625.019999999999 4394.139999999999 3613.3299999999995 4358.299999999999 L 3613.3299999999995 4413.259999999999 C 3613.3299999999995 4421.839999999999 3606.3099999999995 4428.849999999999 3597.7399999999993 4428.849999999999 L 3423.669999999999 4428.849999999999 C 3415.099999999999 4428.849999999999 3408.079999999999 4421.839999999999 3408.079999999999 4413.259999999999 L 3408.079999999999 4342.249999999999 C 3408.079999999999 4333.679999999999 3415.099999999999 4326.659999999999 3423.669999999999 4326.659999999999 L 3597.7399999999993 4326.659999999999 C 3599.359999999999 4326.659999999999 3600.919999999999 4326.909999999999 3602.3899999999994 4327.379999999999 C 3585.6499999999996 4283.539999999999 3564.4399999999996 4241.909999999999 3539.3199999999993 4203.049999999999 L 3463.0499999999993 4203.049999999999 L 3325.0999999999995 4203.049999999999 L 3325.0999999999995 4551.82 z M 2545.1299999999997 5185.75 L 2579.7699999999995 5185.75 C 2587.3899999999994 5185.75 2593.6199999999994 5179.52 2593.6199999999994 5171.89 L 2593.6199999999994 4782.1900000000005 C 2593.6199999999994 4774.570000000001 2587.3899999999994 4768.330000000001 2579.7699999999995 4768.330000000001 L 2545.1299999999997 4768.330000000001 C 2537.4999999999995 4768.330000000001 2531.2699999999995 4774.570000000001 2531.2699999999995 4782.1900000000005 L 2531.2699999999995 5171.89 C 2531.2699999999995 5179.52 2537.4999999999995 5185.75 2545.1299999999997 5185.75 z M 3372.99 5185.75 L 3407.6299999999997 5185.75 C 3415.2499999999995 5185.75 3421.49 5179.52 3421.49 5171.89 L 3421.49 4782.1900000000005 C 3421.49 4774.570000000001 3415.25 4768.330000000001 3407.6299999999997 4768.330000000001 L 3372.99 4768.330000000001 C 3365.37 4768.330000000001 3359.1299999999997 4774.570000000001 3359.1299999999997 4782.1900000000005 L 3359.1299999999997 5171.89 C 3359.1299999999997 5179.52 3365.3699999999994 5185.75 3372.99 5185.75" stroke-linecap="round" />
</g>
		<g transform="matrix(0.15732091541861362 0 0 -0.15732091541861362 26.182919953119836 45.49563552990864)"  >
<path style="stroke: none; stroke-width: 1; stroke-dasharray: none; stroke-linecap: butt; stroke-dashoffset: 0; stroke-linejoin: miter; stroke-miterlimit: 4; fill: rgb(10,34,71); fill-rule: evenodd; opacity: 1;"  paint-order="stroke"  transform=" translate(-3142.8050000000003, -4387.980000000001)" d="M 2976.38 4731.72 C 3004.07 4715.63 3031.83 4699.54 3059.56 4683.52 C 3087.2799999999997 4667.5 3115.0099999999998 4651.55 3142.74 4635.540000000001 C 3170.4599999999996 4619.52 3198.2299999999996 4603.500000000001 3225.95 4587.4800000000005 C 3253.68 4571.46 3281.47 4555.38 3309.23 4539.43 C 3309.23 4483.33 3309.23 4427.2300000000005 3309.23 4371.200000000001 C 3309.23 4315.110000000001 3309.23 4259.070000000001 3309.23 4203.050000000001 C 3281.47 4189.780000000001 3253.68 4176.510000000001 3225.95 4163.310000000001 C 3198.23 4150.1100000000015 3170.46 4136.770000000001 3142.74 4123.5700000000015 C 3115.0099999999998 4110.380000000002 3087.25 4097.040000000002 3059.52 4083.8400000000015 C 3031.8 4070.6400000000017 3004.07 4057.3700000000017 2976.38 4044.2400000000016 C 2976.38 4101.440000000001 2976.38 4158.700000000002 2976.38 4215.970000000001 C 2976.38 4273.240000000002 2976.38 4330.5700000000015 2976.38 4387.840000000001 C 2976.38 4445.1100000000015 2976.38 4502.440000000001 2976.38 4559.710000000001 C 2976.38 4616.980000000001 2976.38 4674.380000000001 2976.38 4731.720000000001" stroke-linecap="round" />
</g>
		<g transform="matrix(0.15732091541861362 0 0 -0.15732091541861362 26.182919953119836 15.789513675989099)"  >
<path style="stroke: none; stroke-width: 1; stroke-dasharray: none; stroke-linecap: butt; stroke-dashoffset: 0; stroke-linejoin: miter; stroke-miterlimit: 4; fill: rgb(255,195,0); fill-rule: evenodd; opacity: 1;"  paint-order="stroke"  transform=" translate(-3142.8050000000003, -4576.805)" d="M 3309.23 4504.74 L 3309.23 4461.12 L 2976.38 4648.86 L 2976.38 4692.49 L 3309.23 4504.74" stroke-linecap="round" />
</g>
		<g transform="matrix(0.15732091541861362 0 0 -0.15732091541861362 26.182919953119836 28.334283471469234)"  >
<path style="stroke: none; stroke-width: 1; stroke-dasharray: none; stroke-linecap: butt; stroke-dashoffset: 0; stroke-linejoin: miter; stroke-miterlimit: 4; fill: rgb(255,195,0); fill-rule: evenodd; opacity: 1;"  paint-order="stroke"  transform=" translate(-3142.8050000000003, -4497.0650000000005)" d="M 3309.23 4425 L 3309.23 4381.38 L 3293.02 4390.52 L 3293.02 4434.14 z M 2976.38 4569.13 L 2976.38 4612.75 L 3026.92 4584.24 L 3026.92 4540.62 z M 3082.3900000000003 4552.95 L 3124.2100000000005 4529.36 L 3124.2100000000005 4485.74 L 3082.3900000000003 4509.33 z M 3179.6800000000003 4498.07 L 3193.6600000000003 4490.19 L 3193.6600000000003 4446.57 L 3179.6800000000003 4454.45 L 3179.6800000000003 4498.07" stroke-linecap="round" />
</g>
		<g transform="matrix(0.15732091541861362 0 0 -0.15732091541861362 -26.18213334854272 45.49563552990864)"  >
<path style="stroke: none; stroke-width: 1; stroke-dasharray: none; stroke-linecap: butt; stroke-dashoffset: 0; stroke-linejoin: miter; stroke-miterlimit: 4; fill: rgb(10,27,53); fill-rule: evenodd; opacity: 1;"  paint-order="stroke"  transform=" translate(-2809.9500000000007, -4387.980000000001)" d="M 2976.38 4731.72 C 2948.69 4715.63 2920.9300000000003 4699.54 2893.2000000000003 4683.52 C 2865.4800000000005 4667.5 2837.7500000000005 4651.55 2810.0200000000004 4635.540000000001 C 2782.2900000000004 4619.52 2754.5300000000007 4603.500000000001 2726.8000000000006 4587.4800000000005 C 2699.080000000001 4571.46 2671.2800000000007 4555.38 2643.5200000000004 4539.43 C 2643.5200000000004 4483.33 2643.5200000000004 4427.2300000000005 2643.5200000000004 4371.200000000001 C 2643.5200000000004 4315.110000000001 2643.5200000000004 4259.070000000001 2643.5200000000004 4203.050000000001 C 2671.2800000000007 4189.780000000001 2699.0800000000004 4176.510000000001 2726.8000000000006 4163.310000000001 C 2754.5300000000007 4150.1100000000015 2782.2900000000004 4136.770000000001 2810.0200000000004 4123.5700000000015 C 2837.7400000000002 4110.380000000002 2865.51 4097.040000000002 2893.2300000000005 4083.8400000000015 C 2920.9600000000005 4070.6400000000017 2948.6900000000005 4057.3700000000017 2976.3800000000006 4044.2400000000016 C 2976.3800000000006 4101.440000000001 2976.3800000000006 4158.700000000002 2976.3800000000006 4215.970000000001 C 2976.3800000000006 4273.240000000002 2976.3800000000006 4330.5700000000015 2976.3800000000006 4387.840000000001 C 2976.3800000000006 4445.1100000000015 2976.3800000000006 4502.440000000001 2976.3800000000006 4559.710000000001 C 2976.3800000000006 4616.980000000001 2976.3800000000006 4674.380000000001 2976.3800000000006 4731.720000000001" stroke-linecap="round" />
</g>
		<g transform="matrix(0.15732091541861362 0 0 -0.15732091541861362 12.234847592105439 20.399803102331532)"  >
<path style="stroke: none; stroke-width: 1; stroke-dasharray: none; stroke-linecap: butt; stroke-dashoffset: 0; stroke-linejoin: miter; stroke-miterlimit: 4; fill: rgb(255,195,0); fill-rule: evenodd; opacity: 1;"  paint-order="stroke"  transform=" translate(-3054.1449999999995, -4547.5)" d="M 3059.41 4574.32 L 3073.7799999999997 4540.3099999999995 L 3048.8799999999997 4520.679999999999 L 3034.5099999999998 4554.69 L 3059.41 4574.32" stroke-linecap="round" />
</g>
		<g transform="matrix(0.15732091541861362 0 0 -0.15732091541861362 27.620833120045802 29.220786829853182)"  >
<path style="stroke: none; stroke-width: 1; stroke-dasharray: none; stroke-linecap: butt; stroke-dashoffset: 0; stroke-linejoin: miter; stroke-miterlimit: 4; fill: rgb(255,195,0); fill-rule: evenodd; opacity: 1;"  paint-order="stroke"  transform=" translate(-3151.9449999999997, -4491.43)" d="M 3157.21 4518.25 L 3171.58 4484.24 L 3146.69 4464.61 L 3132.31 4498.62 L 3157.21 4518.25" stroke-linecap="round" />
</g>
		<g transform="matrix(0.15732091541861362 0 0 -0.15732091541861362 42.04873427308695 50.20897015585041)"  >
<path style="stroke: none; stroke-width: 1; stroke-dasharray: none; stroke-linecap: butt; stroke-dashoffset: 0; stroke-linejoin: miter; stroke-miterlimit: 4; fill: rgb(255,195,0); fill-rule: evenodd; opacity: 1;"  paint-order="stroke"  transform=" translate(-3243.6549999999997, -4358.02)" d="M 3203.95 4484.38 L 3283.77 4439.36 L 3283.77 4264 L 3203.54 4231.66 L 3203.95 4484.38" stroke-linecap="round" />
</g>
		<g transform="matrix(0.15732091541861362 0 0 -0.15732091541861362 -26.182133348542834 15.789513675989099)"  >
<path style="stroke: none; stroke-width: 1; stroke-dasharray: none; stroke-linecap: butt; stroke-dashoffset: 0; stroke-linejoin: miter; stroke-miterlimit: 4; fill: rgb(212,167,17); fill-rule: evenodd; opacity: 1;"  paint-order="stroke"  transform=" translate(-2809.95, -4576.805)" d="M 2643.52 4504.74 L 2643.52 4461.12 L 2976.38 4648.86 L 2976.38 4692.49 L 2643.52 4504.74" stroke-linecap="round" />
</g>
		<g transform="matrix(0.15732091541861362 0 0 -0.15732091541861362 -26.182133348542834 28.334283471469405)"  >
<path style="stroke: none; stroke-width: 1; stroke-dasharray: none; stroke-linecap: butt; stroke-dashoffset: 0; stroke-linejoin: miter; stroke-miterlimit: 4; fill: rgb(212,167,17); fill-rule: evenodd; opacity: 1;"  paint-order="stroke"  transform=" translate(-2809.95, -4497.065)" d="M 2643.52 4425 L 2643.52 4381.38 L 2685.34 4404.96 L 2685.34 4448.59 L 2659.73 4434.14 z M 2759.09 4490.19 L 2731.26 4474.48 L 2731.26 4430.86 L 2773.07 4454.45 L 2773.07 4498.07 z M 2976.38 4569.129999999999 L 2976.38 4612.749999999999 L 2925.84 4584.239999999999 L 2925.84 4540.619999999999 z M 2870.36 4552.949999999999 L 2828.55 4529.359999999999 L 2828.55 4485.739999999999 L 2870.36 4509.329999999999 L 2870.36 4552.949999999999" stroke-linecap="round" />
</g>
		<g transform="matrix(0.15732091541861362 0 0 -0.15732091541861362 -12.173492435092385 20.399803102331532)"  >
<path style="stroke: none; stroke-width: 1; stroke-dasharray: none; stroke-linecap: butt; stroke-dashoffset: 0; stroke-linejoin: miter; stroke-miterlimit: 4; fill: rgb(212,167,17); fill-rule: evenodd; opacity: 1;"  paint-order="stroke"  transform=" translate(-2898.995, -4547.5)" d="M 2893.73 4574.32 L 2879.36 4540.3099999999995 L 2904.25 4520.679999999999 L 2918.63 4554.69 L 2893.73 4574.32" stroke-linecap="round" />
</g>
		<g transform="matrix(0.15732091541861362 0 0 -0.15732091541861362 -27.561051172187092 29.220786829853182)"  >
<path style="stroke: none; stroke-width: 1; stroke-dasharray: none; stroke-linecap: butt; stroke-dashoffset: 0; stroke-linejoin: miter; stroke-miterlimit: 4; fill: rgb(212,167,17); fill-rule: evenodd; opacity: 1;"  paint-order="stroke"  transform=" translate(-2801.1849999999995, -4491.43)" d="M 2795.93 4518.25 L 2781.5499999999997 4484.24 L 2806.45 4464.61 L 2820.8199999999997 4498.62 L 2795.93 4518.25" stroke-linecap="round" />
</g>
		<g transform="matrix(0.15732091541861362 0 0 -0.15732091541861362 -42.122675103333904 37.43372521928197)"  >
<path style="stroke: none; stroke-width: 1; stroke-dasharray: none; stroke-linecap: butt; stroke-dashoffset: 0; stroke-linejoin: miter; stroke-miterlimit: 4; fill: rgb(212,167,17); fill-rule: evenodd; opacity: 1;"  paint-order="stroke"  transform=" translate(-2708.625, -4439.225)" d="M 2703.76 4466.05 L 2690.4700000000003 4432.04 L 2713.4900000000002 4412.4 L 2726.78 4446.41 L 2703.76 4466.05" stroke-linecap="round" />
</g>
		<g transform="matrix(0.15732091541861362 0 0 -0.15732091541861362 0 17.4697010526599)"  >
<path style="stroke: none; stroke-width: 1; stroke-dasharray: none; stroke-linecap: butt; stroke-dashoffset: 0; stroke-linejoin: miter; stroke-miterlimit: 4; fill: rgb(5,19,41); fill-rule: nonzero; opacity: 1;"  paint-order="stroke"  transform=" translate(-2976.3750000000005, -4566.125)" d="M 2976.38 5254.43 C 3090.17 5254.43 3197.51 5226.8 3292.07 5177.91 L 3292.07 5135.99 C 3198.55 5187.9 3090.92 5217.48 2976.38 5217.48 C 2861.84 5217.48 2754.21 5187.9 2660.69 5135.99 L 2660.69 5177.91 C 2755.25 5226.8 2862.59 5254.43 2976.38 5254.43 z M 2464.2 4968.58 C 2377.0299999999997 4857.79 2325.02 4718.03 2325.02 4566.12 C 2325.02 4386.25 2397.93 4223.41 2515.8 4105.54 C 2633.67 3987.67 2796.51 3914.77 2976.38 3914.77 C 3156.25 3914.77 3319.09 3987.67 3436.96 4105.54 C 3554.83 4223.41 3627.73 4386.25 3627.73 4566.12 C 3627.73 4718.0199999999995 3575.72 4857.7699999999995 3488.55 4968.5599999999995 L 3488.55 4981.379999999999 L 3488.55 5025.929999999999 C 3598.05 4904.049999999999 3664.6800000000003 4742.86 3664.6800000000003 4566.119999999999 C 3664.6800000000003 4376.049999999999 3587.6400000000003 4203.979999999999 3463.0800000000004 4079.419999999999 C 3338.5200000000004 3954.859999999999 3166.4500000000003 3877.8199999999993 2976.3800000000006 3877.8199999999993 C 2786.3100000000004 3877.8199999999993 2614.2300000000005 3954.859999999999 2489.6800000000007 4079.419999999999 C 2365.1100000000006 4203.98 2288.0700000000006 4376.049999999999 2288.0700000000006 4566.119999999999 C 2288.0700000000006 4742.859999999999 2354.7000000000007 4904.049999999999 2464.2000000000007 5025.929999999999 L 2464.2000000000007 4968.579999999999" stroke-linecap="round" />
</g>
</g>
</g>
<g transform="matrix(1.9211538461538462 0 0 1.9211538461538462 640.9605769230769 716.959579666009)" style="filter: url(#SVGID_232511);" id="text-logo" data-is-lettermark="false"  >
<filter id="SVGID_232511" y="-20%" height="140%" x="-20%" width="140%" >
	<feGaussianBlur in="SourceAlpha" stdDeviation="0"></feGaussianBlur>
	<feOffset dx="0" dy="0" result="oBlur" ></feOffset>
	<feFlood flood-color="rgb(0,0,0)" flood-opacity="1"/>
	<feComposite in2="oBlur" operator="in" />
	<feMerge>
		<feMergeNode></feMergeNode>
		<feMergeNode in="SourceGraphic"></feMergeNode>
	</feMerge>
</filter>
		<text xml:space="preserve" font-family="Noto Sans Arabic,Noto Sans Hebrew Fallback,Noto Sans Phags Pa Fallback,Noto Sans Thai Fallback,Noto Sans CJK SC Two Fallback,Noto Sans Display" font-size="86" font-style="normal" font-weight="normal" style="stroke: none; stroke-width: 0; stroke-dasharray: none; stroke-linecap: butt; stroke-dashoffset: 0; stroke-linejoin: miter; stroke-miterlimit: 4; fill: rgb(5,19,41); fill-rule: nonzero; opacity: 1; white-space: pre;" paint-order="stroke"  ><tspan x="-90.73" y="27.016039999999997" >جَنَّتِي</tspan></text>
</g>
</svg>